<?xml version="1.0" encoding="utf-8"?>
<!-- Generator: Adobe Illustrator 17.0.0, SVG Export Plug-In . SVG Version: 6.00 Build 0)  -->
<!DOCTYPE svg PUBLIC "-//W3C//DTD SVG 1.1//EN" "http://www.w3.org/Graphics/SVG/1.1/DTD/svg11.dtd">
<svg version="1.1" id="Layer_1" xmlns="http://www.w3.org/2000/svg" xmlns:xlink="http://www.w3.org/1999/xlink" x="0px" y="0px"
	 width="40px" height="50px" viewBox="0 0 40 50" enable-background="new 0 0 40 50" xml:space="preserve">
<g>
	<path fill="none" stroke="#FFFFFF" stroke-width="1" stroke-miterlimit="10" d="M25.6,18.374v20.008
		c0,0.677-0.248,1.264-0.742,1.758c-0.495,0.495-1.081,0.743-1.758,0.743H13.096c-0.677,0-1.264-0.247-1.759-0.743
		c-0.495-0.495-0.742-1.081-0.742-1.758V18.374c0-0.677,0.247-1.263,0.742-1.758c0.495-0.495,1.081-0.742,1.759-0.742H23.1
		c0.677,0,1.263,0.248,1.758,0.742C25.353,17.11,25.6,17.696,25.6,18.374z M23.725,35.255V21.5c0-0.169-0.062-0.316-0.186-0.44
		c-0.124-0.124-0.271-0.186-0.44-0.186H13.096c-0.169,0-0.316,0.062-0.44,0.186c-0.124,0.124-0.186,0.271-0.186,0.44v13.755
		c0,0.169,0.062,0.316,0.186,0.44c0.124,0.124,0.27,0.186,0.44,0.186H23.1c0.169,0,0.316-0.062,0.44-0.186
		C23.663,35.571,23.725,35.425,23.725,35.255z M19.973,18.686c0-0.208-0.104-0.313-0.313-0.313h-3.126
		c-0.209,0-0.313,0.104-0.313,0.313c0,0.209,0.104,0.313,0.313,0.313h3.126C19.869,18.999,19.973,18.895,19.973,18.686z
		 M19.202,39.485c0.306-0.306,0.459-0.674,0.459-1.104s-0.153-0.798-0.459-1.104c-0.306-0.306-0.674-0.459-1.104-0.459
		s-0.798,0.153-1.104,0.459c-0.306,0.306-0.459,0.674-0.459,1.104s0.153,0.798,0.459,1.104c0.306,0.306,0.674,0.459,1.104,0.459
		S18.895,39.792,19.202,39.485z"/>
</g>
</svg>
