<?xml version="1.0" encoding="utf-8"?>
<!-- Generator: Adobe Illustrator 17.0.0, SVG Export Plug-In . SVG Version: 6.00 Build 0)  -->
<!DOCTYPE svg PUBLIC "-//W3C//DTD SVG 1.1//EN" "http://www.w3.org/Graphics/SVG/1.1/DTD/svg11.dtd">
<svg version="1.1" id="Layer_1" xmlns="http://www.w3.org/2000/svg" xmlns:xlink="http://www.w3.org/1999/xlink" x="0px" y="0px"
	 width="40px" height="50px" viewBox="0 0 40 50" enable-background="new 0 0 40 50" xml:space="preserve">
<g>
	<path fill="none" stroke="#FFFFFF" stroke-miterlimit="10" d="M32.528,19.812v9.555c0,0.299-0.1,0.564-0.298,0.795
		c-0.2,0.23-0.455,0.363-0.766,0.401L11.98,32.84c0.013,0.087,0.04,0.22,0.083,0.401c0.044,0.18,0.082,0.345,0.113,0.494
		c0.031,0.151,0.047,0.287,0.047,0.412c0,0.198-0.151,0.597-0.448,1.194h17.171c0.323,0,0.602,0.118,0.838,0.354
		c0.238,0.238,0.356,0.517,0.356,0.84c0,0.325-0.118,0.604-0.356,0.84c-0.236,0.236-0.515,0.354-0.838,0.354H9.833
		c-0.323,0-0.604-0.118-0.84-0.354c-0.236-0.236-0.354-0.515-0.354-0.84c0-0.174,0.067-0.419,0.205-0.737
		c0.136-0.318,0.319-0.688,0.55-1.111c0.23-0.423,0.357-0.66,0.383-0.709l-3.302-15.36H2.666c-0.323,0-0.602-0.118-0.84-0.356
		c-0.236-0.236-0.354-0.515-0.354-0.838c0-0.325,0.118-0.604,0.354-0.84c0.238-0.236,0.517-0.356,0.84-0.356h4.778
		c0.2,0,0.377,0.042,0.533,0.122c0.154,0.082,0.279,0.178,0.372,0.29c0.094,0.111,0.174,0.263,0.243,0.457
		c0.069,0.192,0.114,0.357,0.14,0.494c0.025,0.138,0.06,0.321,0.103,0.552s0.071,0.388,0.083,0.475h22.415
		c0.323,0,0.604,0.118,0.84,0.354C32.41,19.209,32.528,19.489,32.528,19.812z M12.717,38.429c0.466,0.466,0.7,1.031,0.7,1.689
		s-0.234,1.223-0.7,1.689c-0.466,0.466-1.029,0.7-1.689,0.7c-0.659,0-1.221-0.234-1.689-0.7c-0.466-0.466-0.699-1.031-0.699-1.689
		s0.232-1.223,0.699-1.689c0.468-0.466,1.031-0.7,1.689-0.7C11.688,37.729,12.25,37.963,12.717,38.429z M23.813,25.429
		c0.236-0.236,0.354-0.515,0.354-0.84c0-0.323-0.118-0.602-0.354-0.84c-0.236-0.236-0.517-0.354-0.84-0.354h-2.388v-2.39
		c0-0.323-0.12-0.602-0.356-0.838c-0.236-0.238-0.515-0.356-0.84-0.356c-0.323,0-0.602,0.118-0.84,0.356
		c-0.236,0.236-0.354,0.515-0.354,0.838v2.39h-2.39c-0.323,0-0.602,0.118-0.838,0.354c-0.238,0.238-0.356,0.517-0.356,0.84
		c0,0.325,0.118,0.604,0.356,0.84c0.236,0.236,0.515,0.356,0.838,0.356h2.39v2.388c0,0.325,0.118,0.604,0.354,0.84
		c0.238,0.236,0.517,0.354,0.84,0.354c0.325,0,0.604-0.118,0.84-0.354c0.236-0.236,0.356-0.515,0.356-0.84v-2.388h2.388
		C23.296,25.785,23.577,25.665,23.813,25.429z M29.44,38.429c0.466,0.466,0.7,1.031,0.7,1.689s-0.234,1.223-0.7,1.689
		c-0.466,0.466-1.029,0.7-1.689,0.7c-0.659,0-1.221-0.234-1.689-0.7c-0.466-0.466-0.699-1.031-0.699-1.689s0.232-1.223,0.699-1.689
		c0.468-0.466,1.031-0.7,1.689-0.7C28.411,37.729,28.973,37.963,29.44,38.429z"/>
</g>
</svg>
