<?xml version="1.0" encoding="utf-8"?>
<!-- Generator: Adobe Illustrator 17.0.0, SVG Export Plug-In . SVG Version: 6.00 Build 0)  -->
<!DOCTYPE svg PUBLIC "-//W3C//DTD SVG 1.1//EN" "http://www.w3.org/Graphics/SVG/1.1/DTD/svg11.dtd">
<svg version="1.1" id="Layer_1" xmlns="http://www.w3.org/2000/svg" xmlns:xlink="http://www.w3.org/1999/xlink" x="0px" y="0px"
	 width="100px" height="30px" viewBox="0 0 100 30" enable-background="new 0 0 100 30" xml:space="preserve">
<g enable-background="new  ">
	<path fill="#FFFFFF" d="M40.116,13.51c0,1.365-0.33,2.663-0.987,3.892c-0.658,1.229-1.57,2.346-2.737,3.352
		c-1.167,1.005-2.557,1.881-4.171,2.625c-1.614,0.745-3.376,1.304-5.288,1.676l0.038,0.037c-1.713,0.596-2.843,1.093-3.389,1.49
		c-0.67,0.546-1.242,1.378-1.713,2.495c-0.472-1.117-1.043-1.949-1.713-2.495c-0.546-0.397-1.676-0.895-3.389-1.49l0.038-0.037
		c-1.912-0.372-3.675-0.931-5.288-1.676c-1.614-0.744-3.004-1.62-4.171-2.625c-1.167-1.006-2.08-2.123-2.737-3.352
		c-0.658-1.229-0.987-2.527-0.987-3.892c0-1.043,0.192-2.049,0.577-3.017C4.583,9.525,5.129,8.62,5.837,7.775
		c0.708-0.844,1.564-1.626,2.569-2.346s2.128-1.354,3.37-1.899c0.199-0.099,0.366-0.248,0.503-0.447
		c0.136-0.198,0.229-0.409,0.279-0.633l0.037-0.298c0-0.646,0.217-1.024,0.652-1.136c0.434-0.112,0.95-0.093,1.545,0.056
		c0.198,0.372,0.385,0.708,0.559,1.006c0.173,0.298,0.397,0.646,0.67,1.042c0.67,0.895,1.514,1.608,2.532,2.142
		c1.018,0.534,2.123,0.801,3.314,0.801c1.191,0,2.296-0.267,3.314-0.801c1.018-0.533,1.862-1.247,2.532-2.142
		c0.273-0.396,0.496-0.744,0.67-1.042c0.173-0.298,0.359-0.634,0.559-1.006c0.596-0.148,1.111-0.168,1.545-0.056
		c0.434,0.111,0.651,0.49,0.651,1.136l0.038,0.298c0.049,0.224,0.143,0.435,0.279,0.633c0.136,0.199,0.304,0.349,0.502,0.447
		c1.241,0.546,2.365,1.18,3.371,1.899c1.005,0.72,1.862,1.502,2.569,2.346c0.708,0.845,1.253,1.75,1.639,2.719
		C39.923,11.461,40.116,12.467,40.116,13.51z M27.641,19.282c1.812,0,3.357-0.633,4.637-1.898c1.278-1.267,1.917-2.806,1.917-4.619
		c0-1.787-0.639-3.32-1.917-4.599c-1.279-1.278-2.825-1.918-4.637-1.918c-1.242,0-2.377,0.322-3.407,0.968
		c-1.031,0.646-1.819,1.49-2.365,2.532c-0.546-1.042-1.335-1.886-2.365-2.532c-1.031-0.646-2.167-0.968-3.408-0.968
		c-1.812,0-3.358,0.64-4.636,1.918c-1.279,1.278-1.918,2.812-1.918,4.599c0,1.812,0.639,3.352,1.918,4.619
		c1.278,1.266,2.824,1.898,4.636,1.898c0.521,0,1.037-0.062,1.546-0.186c0.508-0.124,0.987-0.298,1.434-0.521l2.793,2.942
		l2.793-2.942c0.447,0.224,0.925,0.397,1.434,0.521S27.12,19.282,27.641,19.282z M17.586,11.537c0.72,0,1.328,0.248,1.825,0.744
		c0.497,0.497,0.745,1.105,0.745,1.825c0,0.695-0.249,1.291-0.745,1.788c-0.497,0.497-1.105,0.745-1.825,0.745
		c-0.695,0-1.291-0.248-1.788-0.745c-0.497-0.497-0.745-1.092-0.745-1.788c0-0.72,0.248-1.328,0.745-1.825
		C16.295,11.785,16.891,11.537,17.586,11.537z M26.151,11.537c0.695,0,1.291,0.248,1.787,0.744c0.497,0.497,0.745,1.105,0.745,1.825
		c0,0.695-0.249,1.291-0.745,1.788c-0.497,0.497-1.092,0.745-1.787,0.745c-0.721,0-1.329-0.248-1.825-0.745
		c-0.497-0.497-0.745-1.092-0.745-1.788c0-0.72,0.248-1.328,0.745-1.825C24.823,11.785,25.431,11.537,26.151,11.537z"/>
</g>
<path fill-rule="evenodd" clip-rule="evenodd" fill="#FFFFFF" d="M47.277,16.612c0.596,0,1.109-0.218,1.541-0.654
	c0.429-0.432,0.65-0.941,0.65-1.544c0-0.603-0.222-1.119-0.65-1.541c-0.432-0.429-0.945-0.647-1.541-0.647H44.65v4.386H47.277z
	 M44.65,10.002h2.493c0.436,0,0.81-0.153,1.13-0.465c0.316-0.313,0.476-0.694,0.476-1.138c0-0.443-0.16-0.818-0.476-1.13
	c-0.32-0.316-0.694-0.476-1.13-0.476H44.65V10.002z M49.999,10.94c1.116,0.897,1.679,2.053,1.679,3.474
	c0,1.214-0.432,2.249-1.29,3.111c-0.869,0.868-1.908,1.301-3.111,1.301h-4.844V4.581h4.71c1.05,0,1.951,0.374,2.707,1.119
	c0.738,0.741,1.112,1.646,1.112,2.7C50.962,9.37,50.639,10.217,49.999,10.94"/>
<path fill-rule="evenodd" clip-rule="evenodd" fill="#FFFFFF" d="M61.166,4.581h2.213v9.775c0,1.29-0.454,2.391-1.363,3.3
	c-0.912,0.908-2.013,1.363-3.296,1.363c-1.286,0-2.38-0.454-3.289-1.374c-0.916-0.908-1.37-2.006-1.37-3.289V4.581h2.209v9.775
	c0,0.672,0.24,1.25,0.723,1.726c0.469,0.483,1.043,0.723,1.726,0.723c0.672,0,1.247-0.24,1.726-0.723
	c0.476-0.469,0.72-1.043,0.72-1.726V4.581z"/>
<polygon fill-rule="evenodd" clip-rule="evenodd" fill="#FFFFFF" points="74.811,18.825 72.595,18.825 72.595,12.797 68.27,12.797 
	68.27,18.825 66.054,18.825 66.054,4.581 68.27,4.581 68.27,10.58 72.595,10.58 72.595,4.581 74.811,4.581 "/>
<path fill-rule="evenodd" clip-rule="evenodd" fill="#FFFFFF" d="M84.314,16.757c1.352,0,2.511-0.487,3.477-1.475
	c0.963-0.988,1.446-2.173,1.446-3.572c0-1.384-0.483-2.573-1.446-3.561c-0.967-0.981-2.126-1.475-3.477-1.475
	c-1.363,0-2.515,0.494-3.467,1.475c-0.978,0.988-1.461,2.177-1.461,3.561c0,1.399,0.483,2.584,1.461,3.572
	C81.799,16.271,82.951,16.757,84.314,16.757 M84.314,4.392c1.988,0,3.681,0.723,5.087,2.158c1.402,1.424,2.108,3.147,2.108,5.16
	c0,2.02-0.705,3.743-2.108,5.175c-1.406,1.439-3.1,2.155-5.087,2.155c-1.988,0-3.685-0.716-5.091-2.155
	c-1.41-1.432-2.108-3.154-2.108-5.175c0-2.013,0.698-3.736,2.108-5.16C80.629,5.115,82.326,4.392,84.314,4.392"/>
<polygon fill-rule="evenodd" clip-rule="evenodd" fill="#FFFFFF" stroke="#FFFFFF" stroke-width="0.25" stroke-miterlimit="10" points="
	44.6,22.35 44.6,22.532 43.146,22.532 43.146,27.546 42.957,27.546 42.957,22.532 41.503,22.532 41.503,22.35 "/>
<path fill-rule="evenodd" clip-rule="evenodd" fill="#FFFFFF" stroke="#FFFFFF" stroke-width="0.25" stroke-miterlimit="10" d="
	M45.533,24.828c0.145-0.309,0.349-0.559,0.614-0.745c0.273-0.189,0.574-0.283,0.905-0.283h0.091v0.182h-0.091
	c-0.422,0-0.778,0.163-1.076,0.494c-0.294,0.334-0.443,0.73-0.443,1.192v1.879h-0.182V23.8h0.182V24.828z"/>
<path fill-rule="evenodd" clip-rule="evenodd" fill="#FFFFFF" stroke="#FFFFFF" stroke-width="0.25" stroke-miterlimit="10" d="
	M49.73,27.358c0.454,0,0.847-0.156,1.177-0.487c0.316-0.331,0.48-0.734,0.48-1.199c0-0.465-0.164-0.861-0.48-1.196
	c-0.331-0.331-0.723-0.494-1.177-0.494s-0.847,0.163-1.163,0.494c-0.331,0.334-0.491,0.73-0.491,1.196
	c0,0.465,0.16,0.865,0.491,1.192C48.884,27.194,49.276,27.358,49.73,27.358 M51.576,27.546h-0.189v-1.057
	c-0.153,0.32-0.374,0.574-0.661,0.763c-0.309,0.196-0.636,0.294-0.996,0.294c-0.505,0-0.938-0.182-1.294-0.552
	c-0.363-0.363-0.542-0.803-0.542-1.323c0-0.509,0.178-0.952,0.542-1.323c0.356-0.363,0.789-0.549,1.294-0.549
	c0.36,0,0.687,0.102,0.996,0.294c0.287,0.193,0.509,0.443,0.661,0.76V23.8h0.189V27.546z"/>
<path fill-rule="evenodd" clip-rule="evenodd" fill="#FFFFFF" stroke="#FFFFFF" stroke-width="0.25" stroke-miterlimit="10" d="
	M54.462,23.982c-0.462,0-0.854,0.163-1.17,0.494c-0.331,0.334-0.491,0.73-0.491,1.196c0,0.465,0.16,0.865,0.491,1.192
	c0.316,0.331,0.708,0.494,1.17,0.494c0.556,0,1.003-0.225,1.337-0.691l0.055-0.073l0.145,0.105l-0.051,0.076
	c-0.37,0.516-0.861,0.77-1.486,0.77c-0.512,0-0.945-0.182-1.301-0.552c-0.363-0.363-0.542-0.803-0.542-1.323
	c0-0.509,0.178-0.952,0.542-1.323c0.356-0.363,0.789-0.549,1.301-0.549c0.625,0,1.116,0.262,1.486,0.77l0.051,0.076l-0.145,0.105
	l-0.055-0.073C55.465,24.214,55.018,23.982,54.462,23.982"/>
<path fill-rule="evenodd" clip-rule="evenodd" fill="#FFFFFF" stroke="#FFFFFF" stroke-width="0.25" stroke-miterlimit="10" d="
	M59.731,23.8l0.12,0.142l-2.188,1.73l2.188,1.733l-0.12,0.142l-2.362-1.875L59.731,23.8z M57.085,22.357h0.185v5.196h-0.185V22.357z
	"/>
<path fill-rule="evenodd" clip-rule="evenodd" fill="#FFFFFF" stroke="#FFFFFF" stroke-width="0.25" stroke-miterlimit="10" d="
	M60.774,22.35c-0.051,0-0.094,0.018-0.131,0.051c-0.033,0.036-0.051,0.08-0.051,0.127c0,0.051,0.018,0.094,0.051,0.131
	c0.037,0.033,0.08,0.051,0.131,0.051c0.047,0,0.091-0.018,0.127-0.051c0.033-0.036,0.051-0.08,0.051-0.131
	c0-0.047-0.018-0.091-0.051-0.127C60.865,22.368,60.821,22.35,60.774,22.35 M60.683,23.8h0.189v3.746h-0.189V23.8z"/>
<path fill-rule="evenodd" clip-rule="evenodd" fill="#FFFFFF" stroke="#FFFFFF" stroke-width="0.25" stroke-miterlimit="10" d="
	M63.405,23.8c0.465,0,0.868,0.185,1.203,0.549c0.331,0.371,0.498,0.814,0.498,1.323v1.875H64.92v-1.875
	c0-0.465-0.149-0.861-0.444-1.196c-0.294-0.331-0.654-0.494-1.072-0.494c-0.422,0-0.774,0.163-1.069,0.494
	c-0.302,0.334-0.451,0.73-0.451,1.196v1.875h-0.182V23.8h0.182v1.028c0.145-0.309,0.349-0.559,0.621-0.745
	C62.78,23.894,63.074,23.8,63.405,23.8"/>
<path fill-rule="evenodd" clip-rule="evenodd" fill="#FFFFFF" stroke="#FFFFFF" stroke-width="0.25" stroke-miterlimit="10" d="
	M67.9,27.365c0.454,0,0.847-0.163,1.17-0.494c0.323-0.331,0.487-0.727,0.487-1.192v-0.007c0-0.465-0.164-0.861-0.487-1.192
	c-0.324-0.327-0.716-0.494-1.17-0.494s-0.846,0.167-1.163,0.494c-0.331,0.331-0.491,0.734-0.491,1.199
	c0,0.465,0.16,0.861,0.491,1.192C67.053,27.201,67.445,27.365,67.9,27.365 M69.739,27.227c-0.026,0.491-0.222,0.908-0.571,1.257
	C68.816,28.826,68.39,29,67.9,29c-0.392,0-0.756-0.113-1.09-0.342c-0.334-0.225-0.567-0.516-0.698-0.868l0.171-0.062
	c0.12,0.313,0.327,0.574,0.636,0.778c0.305,0.204,0.628,0.305,0.981,0.305c0.454,0,0.847-0.164,1.17-0.494
	c0.323-0.327,0.487-0.727,0.487-1.192v-0.629c-0.153,0.316-0.374,0.574-0.669,0.759c-0.302,0.2-0.629,0.298-0.989,0.298
	c-0.505,0-0.937-0.182-1.294-0.552c-0.363-0.363-0.542-0.807-0.542-1.323c0-0.516,0.178-0.959,0.542-1.33
	c0.356-0.363,0.789-0.545,1.294-0.545c0.36,0,0.687,0.098,0.989,0.291c0.294,0.193,0.516,0.443,0.669,0.76v-1.05h0.182V27.227z"/>
<path fill-rule="evenodd" clip-rule="evenodd" fill="#FFFFFF" stroke="#FFFFFF" stroke-width="0.25" stroke-miterlimit="10" d="
	M75.149,22.532c-0.349,0-0.65,0.116-0.894,0.342c-0.251,0.229-0.378,0.505-0.378,0.825c0,0.356,0.131,0.621,0.392,0.803
	c0.16,0.116,0.462,0.236,0.897,0.353c0.462,0.127,0.785,0.258,0.97,0.389c0.309,0.222,0.462,0.538,0.462,0.959
	c0,0.374-0.142,0.69-0.425,0.952c-0.284,0.262-0.625,0.392-1.025,0.392c-0.4,0-0.741-0.131-1.025-0.392
	c-0.284-0.262-0.429-0.578-0.429-0.952h0.182c0,0.316,0.127,0.589,0.378,0.818c0.243,0.225,0.545,0.338,0.894,0.338
	c0.349,0,0.643-0.113,0.894-0.338c0.247-0.229,0.374-0.501,0.374-0.818c0-0.363-0.138-0.636-0.396-0.825
	c-0.167-0.109-0.469-0.222-0.905-0.345c-0.461-0.127-0.778-0.254-0.959-0.385c-0.305-0.218-0.462-0.531-0.462-0.948
	c0-0.371,0.146-0.687,0.429-0.956c0.283-0.262,0.625-0.392,1.025-0.392c0.4,0,0.741,0.131,1.025,0.392
	c0.284,0.269,0.425,0.585,0.425,0.956h-0.182c0-0.32-0.127-0.596-0.374-0.825C75.793,22.648,75.498,22.532,75.149,22.532"/>
<path fill-rule="evenodd" clip-rule="evenodd" fill="#FFFFFF" stroke="#FFFFFF" stroke-width="0.25" stroke-miterlimit="10" d="
	M79.165,27.358c0.454,0,0.847-0.164,1.177-0.494c0.316-0.327,0.48-0.727,0.48-1.192c0-0.465-0.164-0.861-0.48-1.196
	c-0.331-0.331-0.723-0.494-1.177-0.494s-0.846,0.163-1.163,0.494c-0.331,0.334-0.491,0.73-0.491,1.196
	c0,0.465,0.16,0.865,0.491,1.192C78.318,27.194,78.71,27.358,79.165,27.358 M79.165,23.8c0.512,0,0.941,0.185,1.305,0.549
	c0.359,0.371,0.541,0.814,0.541,1.323c0,0.52-0.182,0.959-0.541,1.323c-0.363,0.37-0.792,0.552-1.305,0.552
	c-0.505,0-0.937-0.182-1.294-0.552c-0.363-0.363-0.542-0.803-0.542-1.323c0-0.509,0.178-0.952,0.542-1.323
	C78.227,23.985,78.66,23.8,79.165,23.8"/>
<rect x="82.13" y="22.35" fill-rule="evenodd" clip-rule="evenodd" fill="#FFFFFF" stroke="#FFFFFF" stroke-width="0.25" stroke-miterlimit="10" width="0.186" height="5.196"/>
<path fill-rule="evenodd" clip-rule="evenodd" fill="#FFFFFF" stroke="#FFFFFF" stroke-width="0.25" stroke-miterlimit="10" d="
	M86.734,27.546h-0.189V26.54c-0.134,0.309-0.327,0.545-0.578,0.727c-0.262,0.189-0.545,0.28-0.847,0.28
	c-0.447,0-0.829-0.182-1.141-0.552c-0.316-0.363-0.472-0.803-0.472-1.323V23.8h0.182v1.871c0,0.465,0.138,0.865,0.422,1.192
	c0.28,0.331,0.614,0.494,1.01,0.494c0.392,0,0.727-0.156,1.006-0.487c0.276-0.331,0.418-0.727,0.418-1.192V23.8h0.189V27.546z"/>
<polygon fill-rule="evenodd" clip-rule="evenodd" fill="#FFFFFF" stroke="#FFFFFF" stroke-width="0.25" stroke-miterlimit="10" points="
	88.297,23.8 88.896,23.8 88.896,23.982 88.297,23.982 88.297,27.546 88.108,27.546 88.108,23.982 87.504,23.982 87.504,23.8 
	88.108,23.8 88.108,22.35 88.297,22.35 "/>
<path fill-rule="evenodd" clip-rule="evenodd" fill="#FFFFFF" stroke="#FFFFFF" stroke-width="0.25" stroke-miterlimit="10" d="
	M89.845,22.35c-0.051,0-0.094,0.018-0.131,0.051c-0.033,0.036-0.051,0.08-0.051,0.127c0,0.051,0.018,0.094,0.051,0.131
	c0.037,0.033,0.08,0.051,0.131,0.051c0.047,0,0.091-0.018,0.127-0.051c0.033-0.036,0.051-0.08,0.051-0.131
	c0-0.047-0.018-0.091-0.051-0.127C89.936,22.368,89.892,22.35,89.845,22.35 M89.754,23.8h0.189v3.746h-0.189V23.8z"/>
<path fill-rule="evenodd" clip-rule="evenodd" fill="#FFFFFF" stroke="#FFFFFF" stroke-width="0.25" stroke-miterlimit="10" d="
	M92.61,27.358c0.454,0,0.847-0.164,1.177-0.494c0.316-0.327,0.48-0.727,0.48-1.192c0-0.465-0.164-0.861-0.48-1.196
	c-0.331-0.331-0.723-0.494-1.177-0.494s-0.846,0.163-1.163,0.494c-0.331,0.334-0.491,0.73-0.491,1.196
	c0,0.465,0.16,0.865,0.491,1.192C91.764,27.194,92.156,27.358,92.61,27.358 M92.61,23.8c0.512,0,0.941,0.185,1.305,0.549
	c0.359,0.371,0.541,0.814,0.541,1.323c0,0.52-0.182,0.959-0.541,1.323c-0.363,0.37-0.792,0.552-1.305,0.552
	c-0.505,0-0.937-0.182-1.294-0.552c-0.363-0.363-0.542-0.803-0.542-1.323c0-0.509,0.178-0.952,0.542-1.323
	C91.673,23.985,92.105,23.8,92.61,23.8"/>
<path fill-rule="evenodd" clip-rule="evenodd" fill="#FFFFFF" stroke="#FFFFFF" stroke-width="0.25" stroke-miterlimit="10" d="
	M97.2,23.8c0.465,0,0.868,0.185,1.203,0.549c0.331,0.371,0.498,0.814,0.498,1.323v1.875h-0.185v-1.875
	c0-0.465-0.149-0.861-0.444-1.196c-0.294-0.331-0.654-0.494-1.072-0.494c-0.422,0-0.774,0.163-1.069,0.494
	c-0.302,0.334-0.451,0.73-0.451,1.196v1.875h-0.182V23.8h0.182v1.028c0.145-0.309,0.349-0.559,0.621-0.745
	C96.575,23.894,96.869,23.8,97.2,23.8"/>
</svg>
